<?xml version="1.0" encoding="utf-8"?>
<!-- Generator: Adobe Illustrator 27.3.1, SVG Export Plug-In . SVG Version: 6.00 Build 0)  -->
<svg version="1.1" id="Layer_1" xmlns="http://www.w3.org/2000/svg" xmlns:xlink="http://www.w3.org/1999/xlink" x="0px" y="0px"
	 viewBox="0 0 82.96 81.92" style="enable-background:new 0 0 82.96 81.92;" xml:space="preserve">
<style type="text/css">
	.st0{fill:none;stroke:#DE212C;stroke-width:1.4173;stroke-miterlimit:10;}
	.st1{fill:#DE212C;}
</style>
<g>
	<path class="st0" d="M65.31,39.25h-0.47V35.9c0-3.08-5.77-5.69-5.77-5.69l-5.39-3.22c0-1.85-1.51-3.36-3.36-3.36H20.23
		c-1.85,0-3.36,1.51-3.36,3.36v25.64h5.58c0-2.28,1.14-4.37,3.05-5.61c1.09-0.7,2.35-1.08,3.65-1.08c3.69,0,6.69,3,6.69,6.69h13.39
		c0-2.39,1.28-4.61,3.35-5.79c1.03-0.59,2.18-0.9,3.35-0.9c3.69,0,6.69,3,6.69,6.69h6.1c0.95,0,1.71-0.76,1.71-1.71v-6.57
		C70.42,41.53,68.13,39.25,65.31,39.25z M61.49,39.25h-7.81v-5.58h4.58c1.78,0,3.22,1.44,3.22,3.22L61.49,39.25L61.49,39.25z"/>
	<path class="st0" d="M29.15,48.17c-0.89,0-1.73,0.27-2.43,0.73c-1.23,0.79-2.03,2.18-2.03,3.74c0,2.47,2,4.46,4.46,4.46
		s4.46-2,4.46-4.46S31.61,48.17,29.15,48.17z"/>
	<path class="st0" d="M55.92,48.17c-0.81,0-1.57,0.22-2.23,0.6c-1.34,0.77-2.23,2.21-2.23,3.86c0,2.47,2,4.46,4.46,4.46
		s4.46-2,4.46-4.46S58.38,48.17,55.92,48.17z"/>
	<path class="st1" d="M47.54,30.27c-0.29-0.16-0.58-0.3-0.89-0.41c-0.38-0.13-0.76-0.21-1.16-0.26c-0.26-0.03-0.53-0.04-0.79-0.02
		c-1.72,0.09-3.24,1-4.13,2.44c-0.37,0.6-0.61,1.26-0.71,1.96c-0.06,0.39-0.07,0.78-0.03,1.16c0.13,1.33,0.69,2.44,1.67,3.34
		c0.68,0.62,1.48,1.03,2.38,1.22c0.46,0.1,0.92,0.13,1.38,0.11c0.87-0.05,1.67-0.31,2.41-0.76c0.02-0.01,0.04-0.03,0.06-0.03l0,0
		c0,0.03-0.03,0.04-0.04,0.05c-0.74,0.77-1.62,1.31-2.64,1.64c-0.4,0.13-0.81,0.21-1.23,0.26c-0.35,0.04-0.7,0.05-1.06,0.02
		c-0.98-0.06-1.91-0.33-2.76-0.83c-1.2-0.7-2.08-1.69-2.63-2.96c-0.25-0.58-0.4-1.18-0.47-1.81c-0.04-0.41-0.05-0.83-0.01-1.24
		c0.14-1.39,0.67-2.6,1.61-3.64c0.74-0.82,1.64-1.39,2.68-1.74c0.4-0.13,0.81-0.22,1.23-0.27c0.41-0.05,0.82-0.06,1.23-0.03
		c0.85,0.07,1.65,0.29,2.41,0.68c0.55,0.28,1.04,0.64,1.49,1.07c0.01,0.01,0.02,0.02,0.03,0.03C47.56,30.27,47.56,30.28,47.54,30.27
		"/>
	<g>
		<path class="st1" d="M23.32,31.64v6.05h-1.25v-4.63c-0.09,0.06-0.22,0.14-0.39,0.24c-0.25,0.15-0.43,0.26-0.54,0.33
			c-0.08-0.14-0.22-0.37-0.42-0.7l-0.06-0.09c-0.04-0.08-0.08-0.14-0.11-0.18c0.2-0.15,0.53-0.37,0.97-0.66
			c0.23-0.15,0.41-0.28,0.54-0.37h1.26V31.64z"/>
		<path class="st1" d="M26.26,34.99h-0.91v-1.01h0.91c0.25,0,0.43-0.03,0.53-0.1c0.15-0.11,0.22-0.3,0.22-0.58
			c0-0.22-0.06-0.39-0.19-0.52c-0.13-0.13-0.3-0.2-0.52-0.2c-0.39,0-0.79,0.18-1.21,0.54l-0.46-0.8c0.53-0.52,1.13-0.77,1.8-0.77
			c0.56,0,1.02,0.16,1.38,0.47c0.34,0.31,0.52,0.7,0.52,1.19c0,0.6-0.25,1-0.75,1.2c0.64,0.25,0.96,0.73,0.96,1.43
			c0,0.75-0.25,1.29-0.76,1.63c-0.36,0.24-0.8,0.35-1.34,0.35c-0.29,0-0.63-0.08-1-0.23c-0.37-0.16-0.68-0.35-0.91-0.57l0.51-0.76
			c0.34,0.31,0.78,0.47,1.32,0.47c0.27,0,0.49-0.08,0.65-0.23c0.16-0.16,0.24-0.37,0.24-0.64C27.23,35.27,26.91,34.99,26.26,34.99z"
			/>
		<path class="st1" d="M31.07,34.99h-0.91v-1.01h0.91c0.25,0,0.43-0.03,0.53-0.1c0.15-0.11,0.22-0.3,0.22-0.58
			c0-0.22-0.06-0.39-0.19-0.52c-0.13-0.13-0.3-0.2-0.52-0.2c-0.39,0-0.79,0.18-1.21,0.54l-0.46-0.8c0.53-0.52,1.13-0.77,1.8-0.77
			c0.56,0,1.02,0.16,1.38,0.47c0.34,0.31,0.52,0.7,0.52,1.19c0,0.6-0.25,1-0.75,1.2c0.64,0.25,0.96,0.73,0.96,1.43
			c0,0.75-0.25,1.29-0.76,1.63c-0.36,0.24-0.8,0.35-1.34,0.35c-0.29,0-0.63-0.08-1-0.23c-0.37-0.16-0.68-0.35-0.91-0.57l0.51-0.76
			c0.34,0.31,0.78,0.47,1.32,0.47c0.27,0,0.49-0.08,0.65-0.23c0.16-0.16,0.24-0.37,0.24-0.64C32.04,35.27,31.72,34.99,31.07,34.99z"
			/>
	</g>
	<path class="st1" d="M49.26,23.65h-7.99c-0.79,0-1.44-0.65-1.44-1.44V22.1c0-0.79,0.65-1.44,1.44-1.44h7.99
		c0.79,0,1.44,0.65,1.44,1.44v0.11C50.7,23,50.05,23.65,49.26,23.65z"/>
	<path class="st1" d="M49.04,19.39L49.04,19.39c0.25,0.18,0.6,0.12,0.78-0.13l3.07-4.29c0.18-0.25,0.12-0.6-0.13-0.78l0,0
		c-0.25-0.18-0.6-0.12-0.78,0.13l-3.07,4.29C48.73,18.86,48.79,19.21,49.04,19.39z"/>
	<path class="st1" d="M41.3,19.39L41.3,19.39c-0.25,0.18-0.6,0.12-0.78-0.13l-3.07-4.29c-0.18-0.25-0.12-0.6,0.13-0.78l0,0
		c0.25-0.18,0.6-0.12,0.78,0.13l3.07,4.29C41.61,18.86,41.55,19.21,41.3,19.39z"/>
	<path class="st1" d="M45.26,12.23L45.26,12.23c0.31,0,0.56,0.25,0.56,0.56v5.28c0,0.31-0.25,0.56-0.56,0.56l0,0
		c-0.31,0-0.56-0.25-0.56-0.56v-5.28C44.7,12.48,44.95,12.23,45.26,12.23z"/>
</g>
</svg>
