<?xml version="1.0" encoding="utf-8"?>
<!-- Generator: Adobe Illustrator 27.3.1, SVG Export Plug-In . SVG Version: 6.00 Build 0)  -->
<svg version="1.1" id="Layer_1" xmlns="http://www.w3.org/2000/svg" xmlns:xlink="http://www.w3.org/1999/xlink" x="0px" y="0px"
	 viewBox="0 0 82.96 81.92" style="enable-background:new 0 0 82.96 81.92;" xml:space="preserve">
<style type="text/css">
	.st0{fill:none;stroke:#DE212C;stroke-width:1.4173;stroke-miterlimit:10;}
	.st1{fill:none;stroke:#DE212C;stroke-miterlimit:10;}
</style>
<g>
	<path class="st0" d="M45.02,41.25l5.58-5.52c0.6-0.61,1.56-0.61,2.16,0s0.6,1.59,0,2.2l-2.78,2.67c-0.35,0.35-0.35,0.93,0,1.28
		s0.91,0.35,1.26,0l3.44-3.68V26.48c0-1.21,1.01-2.2,2.2-2.2s2.2,0.98,2.2,2.2v12.75c0,0.58-0.23,1.14-0.63,1.56l-8.16,8.41v6.6
		h-6.6v-11C43.68,43.34,44.06,42.22,45.02,41.25z"/>
	<path class="st0" d="M37.94,41.25l-5.58-5.52c-0.6-0.61-1.56-0.61-2.16,0s-0.6,1.59,0,2.2l2.78,2.67c0.35,0.35,0.35,0.93,0,1.28
		s-0.91,0.35-1.26,0l-3.44-3.68V26.48c0-1.21-1.01-2.2-2.2-2.2s-2.2,0.98-2.2,2.2v12.75c0,0.58,0.23,1.14,0.63,1.56l8.16,8.41v6.6
		h6.6v-11C39.28,43.34,38.9,42.22,37.94,41.25z"/>
</g>
<g>
	<path class="st1" d="M32.96,29.36v1.61h3.76v-0.48c0-1.58,0.77-3.02,1.94-3.97c-0.6-0.45-1.34-0.71-2.11-0.71
		C34.63,25.8,32.96,27.39,32.96,29.36z"/>
	<path class="st1" d="M50.8,30.96v-1.61c0-1.97-1.67-3.56-3.58-3.56c-0.77,0-1.51,0.26-2.11,0.71c1.17,0.95,1.94,2.39,1.94,3.97
		v0.48h3.75V30.96z"/>
	<path class="st1" d="M46.11,30.96v-0.48c0-1.36-0.67-2.56-1.68-3.33c-0.72-0.54-1.61-0.87-2.55-0.87c-0.93,0-1.83,0.32-2.55,0.87
		c-1.01,0.77-1.68,1.97-1.68,3.33v0.48v1.41h8.45L46.11,30.96L46.11,30.96z"/>
	<circle class="st1" cx="41.88" cy="22.98" r="2.35"/>
	<circle class="st1" cx="36.72" cy="22.98" r="1.88"/>
	<circle class="st1" cx="47.05" cy="22.98" r="1.88"/>
</g>
</svg>
