<?xml version="1.0" encoding="utf-8"?>
<!-- Generator: Adobe Illustrator 27.3.1, SVG Export Plug-In . SVG Version: 6.00 Build 0)  -->
<svg version="1.1" id="Layer_1" xmlns="http://www.w3.org/2000/svg" xmlns:xlink="http://www.w3.org/1999/xlink" x="0px" y="0px"
	 viewBox="0 0 82.96 81.92" style="enable-background:new 0 0 82.96 81.92;" xml:space="preserve">
<style type="text/css">
	.st0{fill:none;stroke:#ED1C24;stroke-miterlimit:10;}
	.st1{fill:#DE212C;}
</style>
<g>
	<path class="st0" d="M18.1,48.33l3.42,0.87h3.45c0.83,0,1.57-0.55,1.78-1.35c0.06-0.23,0.13-0.45,0.22-0.67
		c0.24-0.6-0.19-1.25-0.84-1.25H18.9c-0.83,0-1.51,0.68-1.51,1.51l0,0C17.4,47.86,17.69,48.23,18.1,48.33z M64.45,37.33l-2.63-7.9
		c-0.05-0.15-0.07-0.3-0.07-0.45v-0.52c0-0.79-0.64-1.43-1.43-1.43h-6.25c-0.79,0-1.43,0.64-1.43,1.43V44.5
		c0,0.79-0.64,1.43-1.43,1.43H38.65c-0.95,0-1.62,0.9-1.37,1.82c0.02,0.09,0.05,0.17,0.07,0.26c0.15,0.68,0.71,1.19,1.41,1.19h14.41
		c0.67,0,1.28-0.44,1.42-1.1c0.51-2.48,2.71-4.35,5.35-4.35c2.12,0,3.95,1.22,4.85,2.98c0.22,0.42,0.38,0.88,0.48,1.37
		c0.52,0.41,0.88,0.69,1.4,1.11h1.65c0.79,0,1.43-0.64,1.43-1.43v-6.71c0-0.57-0.34-1.09-0.87-1.31l-3.64-1.56
		C64.87,38.03,64.58,37.71,64.45,37.33z M55.21,37.94v-6.55h5.09l2.18,6.55H55.21z M32.04,45.21c-2.21,0-4,1.79-4,3.99
		c0,2.21,1.79,4,4,4c2.2,0,3.99-1.79,3.99-4C36.03,47,34.24,45.21,32.04,45.21 M32.04,51.38c-1.21,0-2.19-0.98-2.19-2.18
		s0.98-2.18,2.19-2.18c1.2,0,2.18,0.98,2.18,2.18S33.24,51.38,32.04,51.38 M59.93,45.21c-2.21,0-4,1.79-4,3.99c0,2.21,1.79,4,4,4
		c2.2,0,4-1.79,4-4C63.93,47,62.14,45.21,59.93,45.21 M59.93,51.38c-1.21,0-2.18-0.98-2.18-2.18s0.98-2.18,2.18-2.18
		s2.18,0.98,2.18,2.18S61.14,51.38,59.93,51.38 M48.44,44.68H19.95c-1.41,0-2.55-1.14-2.55-2.55v-15.9c0-1.13,0.92-2.05,2.05-2.05
		h29.2c1.16,0,2.11,0.94,2.11,2.11v16.08C50.76,43.64,49.72,44.68,48.44,44.68z"/>
</g>
<path class="st1" d="M38.44,28.97c-0.31-0.17-0.62-0.32-0.96-0.44c-0.4-0.14-0.81-0.23-1.24-0.27c-0.28-0.03-0.56-0.04-0.84-0.02
	c-1.84,0.09-3.46,1.07-4.41,2.6c-0.4,0.64-0.65,1.34-0.76,2.1c-0.06,0.41-0.07,0.83-0.03,1.24c0.14,1.42,0.73,2.61,1.78,3.57
	c0.73,0.66,1.58,1.1,2.54,1.3c0.49,0.1,0.98,0.14,1.48,0.11c0.93-0.06,1.78-0.33,2.58-0.81c0.02-0.01,0.04-0.03,0.07-0.03l0,0
	c0,0.03-0.03,0.04-0.05,0.06c-0.79,0.82-1.73,1.4-2.82,1.75c-0.43,0.14-0.87,0.23-1.31,0.27c-0.37,0.04-0.75,0.05-1.13,0.02
	c-1.05-0.07-2.04-0.36-2.95-0.89c-1.28-0.75-2.22-1.8-2.81-3.16c-0.27-0.62-0.43-1.26-0.5-1.93c-0.05-0.44-0.05-0.88-0.01-1.33
	c0.15-1.48,0.72-2.78,1.71-3.88c0.79-0.87,1.75-1.49,2.86-1.86c0.43-0.14,0.87-0.24,1.32-0.29c0.44-0.05,0.87-0.06,1.31-0.03
	c0.9,0.07,1.76,0.31,2.57,0.73c0.59,0.3,1.11,0.68,1.59,1.14c0.01,0.01,0.02,0.02,0.03,0.03C38.46,28.97,38.46,28.97,38.44,28.97"/>
</svg>
